<region>
sample=$SAMPLE_DIR/black_cortex_floor_tom_18_ctr_a_01.wav
pan=$TOM_4_PAN
hivel=14
seq_length=2

<region>
sample=$SAMPLE_DIR/black_cortex_floor_tom_18_ctr_b_01.wav
pan=$TOM_4_PAN
hivel=14
seq_length=2
seq_position=2

<region>
sample=$SAMPLE_DIR/black_cortex_floor_tom_18_ctr_a_02.wav
pan=$TOM_4_PAN
lovel=15
hivel=28
seq_length=2

<region>
sample=$SAMPLE_DIR/black_cortex_floor_tom_18_ctr_b_02.wav
pan=$TOM_4_PAN
lovel=15
hivel=28
seq_length=2
seq_position=2

<region>
sample=$SAMPLE_DIR/black_cortex_floor_tom_18_ctr_a_03.wav
pan=$TOM_4_PAN
lovel=29
hivel=42
seq_length=2

<region>
sample=$SAMPLE_DIR/black_cortex_floor_tom_18_ctr_b_03.wav
pan=$TOM_4_PAN
lovel=29
hivel=42
seq_length=2
seq_position=2

<region>
sample=$SAMPLE_DIR/black_cortex_floor_tom_18_ctr_a_04.wav
pan=$TOM_4_PAN
lovel=43
hivel=56
seq_length=2

<region>
sample=$SAMPLE_DIR/black_cortex_floor_tom_18_ctr_b_04.wav
pan=$TOM_4_PAN
lovel=43
hivel=56
seq_length=2
seq_position=2

<region>
sample=$SAMPLE_DIR/black_cortex_floor_tom_18_ctr_a_05.wav
pan=$TOM_4_PAN
lovel=57
hivel=70
seq_length=2

<region>
sample=$SAMPLE_DIR/black_cortex_floor_tom_18_ctr_b_05.wav
pan=$TOM_4_PAN
lovel=57
hivel=70
seq_length=2
seq_position=2

<region>
sample=$SAMPLE_DIR/black_cortex_floor_tom_18_ctr_a_06.wav
pan=$TOM_4_PAN
lovel=71
hivel=84
seq_length=2

<region>
sample=$SAMPLE_DIR/black_cortex_floor_tom_18_ctr_b_06.wav
pan=$TOM_4_PAN
lovel=71
hivel=84
seq_length=2
seq_position=2

<region>
sample=$SAMPLE_DIR/black_cortex_floor_tom_18_ctr_a_07.wav
pan=$TOM_4_PAN
lovel=85
hivel=98
seq_length=2

<region>
sample=$SAMPLE_DIR/black_cortex_floor_tom_18_ctr_b_07.wav
pan=$TOM_4_PAN
lovel=85
hivel=98
seq_length=2
seq_position=2

<region>
sample=$SAMPLE_DIR/black_cortex_floor_tom_18_ctr_a_08.wav
pan=$TOM_4_PAN
lovel=99
hivel=112
seq_length=2

<region>
sample=$SAMPLE_DIR/black_cortex_floor_tom_18_ctr_b_08.wav
pan=$TOM_4_PAN
lovel=99
hivel=112
seq_length=2
seq_position=2

<region>
sample=$SAMPLE_DIR/black_cortex_floor_tom_18_ctr_a_09.wav
pan=$TOM_4_PAN
lovel=113
seq_length=2

<region>
sample=$SAMPLE_DIR/black_cortex_floor_tom_18_ctr_b_09.wav
pan=$TOM_4_PAN
lovel=113
seq_length=2
seq_position=2
